<svg width="138" height="14" viewBox="0 0 138 14" fill="none" xmlns="http://www.w3.org/2000/svg">
<path d="M8.824 1.848V13H7.368V7.944H1.688V13H0.232V1.848H1.688V6.744H7.368V1.848H8.824ZM15.1341 13.144C14.3128 13.144 13.5661 12.9573 12.8941 12.584C12.2328 12.2107 11.7101 11.6827 11.3261 11C10.9528 10.3067 10.7661 9.50667 10.7661 8.6C10.7661 7.704 10.9581 6.91467 11.3421 6.232C11.7368 5.53867 12.2701 5.01067 12.9421 4.648C13.6141 4.27467 14.3661 4.088 15.1981 4.088C16.0301 4.088 16.7821 4.27467 17.4541 4.648C18.1261 5.01067 18.6541 5.53333 19.0381 6.216C19.4328 6.89867 19.6301 7.69333 19.6301 8.6C19.6301 9.50667 19.4275 10.3067 19.0221 11C18.6275 11.6827 18.0888 12.2107 17.4061 12.584C16.7235 12.9573 15.9661 13.144 15.1341 13.144ZM15.1341 11.864C15.6568 11.864 16.1475 11.7413 16.6061 11.496C17.0648 11.2507 17.4328 10.8827 17.7101 10.392C17.9981 9.90133 18.1421 9.304 18.1421 8.6C18.1421 7.896 18.0035 7.29867 17.7261 6.808C17.4488 6.31733 17.0861 5.95467 16.6381 5.72C16.1901 5.47467 15.7048 5.352 15.1821 5.352C14.6488 5.352 14.1581 5.47467 13.7101 5.72C13.2728 5.95467 12.9208 6.31733 12.6541 6.808C12.3875 7.29867 12.2541 7.896 12.2541 8.6C12.2541 9.31467 12.3821 9.91733 12.6381 10.408C12.9048 10.8987 13.2568 11.2667 13.6941 11.512C14.1315 11.7467 14.6115 11.864 15.1341 11.864ZM32.0885 4.072C32.7712 4.072 33.3792 4.216 33.9125 4.504C34.4458 4.78133 34.8672 5.20267 35.1765 5.768C35.4858 6.33333 35.6405 7.02133 35.6405 7.832V13H34.2005V8.04C34.2005 7.16533 33.9818 6.49867 33.5445 6.04C33.1178 5.57067 32.5365 5.336 31.8005 5.336C31.0432 5.336 30.4405 5.58133 29.9925 6.072C29.5445 6.552 29.3205 7.25067 29.3205 8.168V13H27.8805V8.04C27.8805 7.16533 27.6618 6.49867 27.2245 6.04C26.7978 5.57067 26.2165 5.336 25.4805 5.336C24.7232 5.336 24.1205 5.58133 23.6725 6.072C23.2245 6.552 23.0005 7.25067 23.0005 8.168V13H21.5445V4.232H23.0005V5.496C23.2885 5.03733 23.6725 4.68533 24.1525 4.44C24.6432 4.19467 25.1818 4.072 25.7685 4.072C26.5045 4.072 27.1552 4.23733 27.7205 4.568C28.2858 4.89867 28.7072 5.384 28.9845 6.024C29.2298 5.40533 29.6352 4.92533 30.2005 4.584C30.7658 4.24267 31.3952 4.072 32.0885 4.072ZM46.0289 8.28C46.0289 8.55733 46.0129 8.85067 45.9809 9.16H38.9729C39.0262 10.024 39.3195 10.7013 39.8529 11.192C40.3969 11.672 41.0529 11.912 41.8209 11.912C42.4502 11.912 42.9729 11.768 43.3889 11.48C43.8155 11.1813 44.1142 10.7867 44.2849 10.296H45.8529C45.6182 11.1387 45.1489 11.8267 44.4449 12.36C43.7409 12.8827 42.8662 13.144 41.8209 13.144C40.9889 13.144 40.2422 12.9573 39.5809 12.584C38.9302 12.2107 38.4182 11.6827 38.0449 11C37.6715 10.3067 37.4849 9.50667 37.4849 8.6C37.4849 7.69333 37.6662 6.89867 38.0289 6.216C38.3915 5.53333 38.8982 5.01067 39.5489 4.648C40.2102 4.27467 40.9675 4.088 41.8209 4.088C42.6529 4.088 43.3889 4.26933 44.0289 4.632C44.6689 4.99467 45.1595 5.496 45.5009 6.136C45.8529 6.76533 46.0289 7.48 46.0289 8.28ZM44.5249 7.976C44.5249 7.42133 44.4022 6.94667 44.1569 6.552C43.9115 6.14667 43.5755 5.84267 43.1489 5.64C42.7329 5.42667 42.2689 5.32 41.7569 5.32C41.0209 5.32 40.3915 5.55467 39.8689 6.024C39.3569 6.49333 39.0635 7.144 38.9889 7.976H44.5249ZM61.0196 3.48H62.8596L66.7316 7.144L62.8596 10.824H61.0196L64.8916 7.144L61.0196 3.48Z" fill="#848484"/>
<path d="M77.1743 13.112C76.4383 13.112 75.7769 12.984 75.1903 12.728C74.6143 12.4613 74.1609 12.0987 73.8303 11.64C73.4996 11.1707 73.3289 10.632 73.3183 10.024H74.8703C74.9236 10.5467 75.1369 10.9893 75.5103 11.352C75.8943 11.704 76.4489 11.88 77.1743 11.88C77.8676 11.88 78.4116 11.7093 78.8063 11.368C79.2116 11.016 79.4143 10.568 79.4143 10.024C79.4143 9.59733 79.2969 9.25067 79.0623 8.984C78.8276 8.71733 78.5343 8.51467 78.1823 8.376C77.8303 8.23733 77.3556 8.088 76.7583 7.928C76.0223 7.736 75.4303 7.544 74.9823 7.352C74.5449 7.16 74.1663 6.86133 73.8463 6.456C73.5369 6.04 73.3823 5.48533 73.3823 4.792C73.3823 4.184 73.5369 3.64533 73.8463 3.176C74.1556 2.70667 74.5876 2.344 75.1423 2.088C75.7076 1.832 76.3529 1.704 77.0783 1.704C78.1236 1.704 78.9769 1.96533 79.6383 2.488C80.3103 3.01067 80.6889 3.704 80.7743 4.568H79.1743C79.1209 4.14133 78.8969 3.768 78.5023 3.448C78.1076 3.11733 77.5849 2.952 76.9343 2.952C76.3263 2.952 75.8303 3.112 75.4463 3.432C75.0623 3.74133 74.8703 4.17867 74.8703 4.744C74.8703 5.14933 74.9823 5.48 75.2063 5.736C75.4409 5.992 75.7236 6.18933 76.0543 6.328C76.3956 6.456 76.8703 6.60533 77.4783 6.776C78.2143 6.97867 78.8063 7.18133 79.2543 7.384C79.7023 7.576 80.0863 7.88 80.4062 8.296C80.7263 8.70133 80.8863 9.256 80.8863 9.96C80.8863 10.504 80.7423 11.016 80.4543 11.496C80.1663 11.976 79.7396 12.3653 79.1743 12.664C78.6089 12.9627 77.9423 13.112 77.1743 13.112ZM91.0289 8.28C91.0289 8.55733 91.0129 8.85067 90.9809 9.16H83.9729C84.0262 10.024 84.3195 10.7013 84.8529 11.192C85.3969 11.672 86.0529 11.912 86.8209 11.912C87.4502 11.912 87.9729 11.768 88.3889 11.48C88.8155 11.1813 89.1142 10.7867 89.2849 10.296H90.8529C90.6182 11.1387 90.1489 11.8267 89.4449 12.36C88.7409 12.8827 87.8662 13.144 86.8209 13.144C85.9889 13.144 85.2422 12.9573 84.5809 12.584C83.9302 12.2107 83.4182 11.6827 83.0449 11C82.6715 10.3067 82.4849 9.50667 82.4849 8.6C82.4849 7.69333 82.6662 6.89867 83.0289 6.216C83.3915 5.53333 83.8982 5.01067 84.5489 4.648C85.2102 4.27467 85.9675 4.088 86.8209 4.088C87.6529 4.088 88.3889 4.26933 89.0289 4.632C89.6689 4.99467 90.1595 5.496 90.5009 6.136C90.8529 6.76533 91.0289 7.48 91.0289 8.28ZM89.5249 7.976C89.5249 7.42133 89.4022 6.94667 89.1569 6.552C88.9115 6.14667 88.5755 5.84267 88.1489 5.64C87.7329 5.42667 87.2689 5.32 86.7569 5.32C86.0209 5.32 85.3915 5.55467 84.8689 6.024C84.3569 6.49333 84.0635 7.144 83.9889 7.976H89.5249ZM94.4068 5.656C94.6628 5.15467 95.0254 4.76533 95.4948 4.488C95.9748 4.21067 96.5561 4.072 97.2388 4.072V5.576H96.8548C95.2228 5.576 94.4068 6.46133 94.4068 8.232V13H92.9508V4.232H94.4068V5.656ZM102.184 11.656L104.904 4.232H106.456L103.016 13H101.32L97.8795 4.232H99.4475L102.184 11.656ZM108.64 2.808C108.363 2.808 108.128 2.712 107.936 2.52C107.744 2.328 107.648 2.09333 107.648 1.816C107.648 1.53867 107.744 1.304 107.936 1.112C108.128 0.919999 108.363 0.823999 108.64 0.823999C108.907 0.823999 109.131 0.919999 109.312 1.112C109.504 1.304 109.6 1.53867 109.6 1.816C109.6 2.09333 109.504 2.328 109.312 2.52C109.131 2.712 108.907 2.808 108.64 2.808ZM109.344 4.232V13H107.888V4.232H109.344ZM111.282 8.6C111.282 7.69333 111.463 6.904 111.826 6.232C112.188 5.54933 112.69 5.02133 113.33 4.648C113.98 4.27467 114.722 4.088 115.554 4.088C116.631 4.088 117.516 4.34933 118.21 4.872C118.914 5.39467 119.378 6.12 119.602 7.048H118.034C117.884 6.51467 117.591 6.09333 117.154 5.784C116.727 5.47467 116.194 5.32 115.554 5.32C114.722 5.32 114.05 5.608 113.538 6.184C113.026 6.74933 112.77 7.55467 112.77 8.6C112.77 9.656 113.026 10.472 113.538 11.048C114.05 11.624 114.722 11.912 115.554 11.912C116.194 11.912 116.727 11.7627 117.154 11.464C117.58 11.1653 117.874 10.7387 118.034 10.184H119.602C119.367 11.08 118.898 11.8 118.194 12.344C117.49 12.8773 116.61 13.144 115.554 13.144C114.722 13.144 113.98 12.9573 113.33 12.584C112.69 12.2107 112.188 11.6827 111.826 11C111.463 10.3173 111.282 9.51733 111.282 8.6ZM129.545 8.28C129.545 8.55733 129.529 8.85067 129.497 9.16H122.489C122.542 10.024 122.835 10.7013 123.369 11.192C123.913 11.672 124.569 11.912 125.337 11.912C125.966 11.912 126.489 11.768 126.905 11.48C127.331 11.1813 127.63 10.7867 127.801 10.296H129.369C129.134 11.1387 128.665 11.8267 127.961 12.36C127.257 12.8827 126.382 13.144 125.337 13.144C124.505 13.144 123.758 12.9573 123.097 12.584C122.446 12.2107 121.934 11.6827 121.561 11C121.187 10.3067 121.001 9.50667 121.001 8.6C121.001 7.69333 121.182 6.89867 121.545 6.216C121.907 5.53333 122.414 5.01067 123.065 4.648C123.726 4.27467 124.483 4.088 125.337 4.088C126.169 4.088 126.905 4.26933 127.545 4.632C128.185 4.99467 128.675 5.496 129.017 6.136C129.369 6.76533 129.545 7.48 129.545 8.28ZM128.041 7.976C128.041 7.42133 127.918 6.94667 127.673 6.552C127.427 6.14667 127.091 5.84267 126.665 5.64C126.249 5.42667 125.785 5.32 125.273 5.32C124.537 5.32 123.907 5.55467 123.385 6.024C122.873 6.49333 122.579 7.144 122.505 7.976H128.041ZM134.57 13.144C133.898 13.144 133.296 13.032 132.762 12.808C132.229 12.5733 131.808 12.2533 131.498 11.848C131.189 11.432 131.018 10.9573 130.986 10.424H132.49C132.533 10.8613 132.736 11.2187 133.098 11.496C133.472 11.7733 133.957 11.912 134.554 11.912C135.109 11.912 135.546 11.7893 135.866 11.544C136.186 11.2987 136.346 10.9893 136.346 10.616C136.346 10.232 136.176 9.94933 135.834 9.768C135.493 9.576 134.965 9.38933 134.25 9.208C133.6 9.03733 133.066 8.86667 132.65 8.696C132.245 8.51467 131.893 8.25333 131.594 7.912C131.306 7.56 131.162 7.10133 131.162 6.536C131.162 6.088 131.296 5.67733 131.562 5.304C131.829 4.93067 132.208 4.63733 132.698 4.424C133.189 4.2 133.749 4.088 134.378 4.088C135.349 4.088 136.133 4.33333 136.73 4.824C137.328 5.31467 137.648 5.98667 137.69 6.84H136.234C136.202 6.38133 136.016 6.01333 135.674 5.736C135.344 5.45867 134.896 5.32 134.33 5.32C133.808 5.32 133.392 5.432 133.082 5.656C132.773 5.88 132.618 6.17333 132.618 6.536C132.618 6.824 132.709 7.064 132.89 7.256C133.082 7.43733 133.317 7.58667 133.594 7.704C133.882 7.81067 134.277 7.93333 134.778 8.072C135.408 8.24267 135.92 8.41333 136.314 8.584C136.709 8.744 137.045 8.98933 137.322 9.32C137.61 9.65067 137.76 10.0827 137.77 10.616C137.77 11.096 137.637 11.528 137.37 11.912C137.104 12.296 136.725 12.6 136.234 12.824C135.754 13.0373 135.2 13.144 134.57 13.144Z" fill="#E47500"/>
</svg>
