<svg width="111" height="54" viewBox="0 0 111 54" fill="none" xmlns="http://www.w3.org/2000/svg">
<path d="M51.746 44.14C50.4953 44.14 49.5433 43.804 48.89 43.132C48.246 42.46 47.9007 41.5313 47.854 40.346C47.8447 40.094 47.84 39.6833 47.84 39.114C47.84 38.5353 47.8447 38.1153 47.854 37.854C47.9007 36.678 48.2507 35.754 48.904 35.082C49.5573 34.4007 50.5047 34.06 51.746 34.06C52.5767 34.06 53.2813 34.2093 53.86 34.508C54.4387 34.7973 54.8773 35.18 55.176 35.656C55.4747 36.132 55.638 36.6407 55.666 37.182V37.21C55.666 37.2847 55.6333 37.35 55.568 37.406C55.512 37.4527 55.4467 37.476 55.372 37.476H54.602C54.4153 37.476 54.2987 37.3687 54.252 37.154C54.0933 36.454 53.8087 35.964 53.398 35.684C52.9873 35.3947 52.4367 35.25 51.746 35.25C50.1407 35.25 49.31 36.1413 49.254 37.924C49.2447 38.176 49.24 38.5633 49.24 39.086C49.24 39.6087 49.2447 40.0053 49.254 40.276C49.31 42.0587 50.1407 42.95 51.746 42.95C52.4367 42.95 52.9873 42.81 53.398 42.53C53.818 42.2407 54.1027 41.746 54.252 41.046C54.28 40.9247 54.322 40.8407 54.378 40.794C54.434 40.7473 54.5087 40.724 54.602 40.724H55.372C55.456 40.724 55.526 40.752 55.582 40.808C55.6473 40.8547 55.6753 40.92 55.666 41.004C55.638 41.5547 55.4747 42.068 55.176 42.544C54.8773 43.02 54.4387 43.4073 53.86 43.706C53.2813 43.9953 52.5767 44.14 51.746 44.14ZM60.3422 44.14C59.3156 44.14 58.5176 43.8507 57.9482 43.272C57.3882 42.6933 57.0896 41.9233 57.0522 40.962L57.0382 40.36L57.0522 39.758C57.0896 38.806 57.3929 38.0407 57.9622 37.462C58.5316 36.874 59.3249 36.58 60.3422 36.58C61.3596 36.58 62.1529 36.874 62.7222 37.462C63.2916 38.0407 63.5949 38.806 63.6322 39.758C63.6416 39.8607 63.6462 40.0613 63.6462 40.36C63.6462 40.6587 63.6416 40.8593 63.6322 40.962C63.5949 41.9233 63.2916 42.6933 62.7222 43.272C62.1622 43.8507 61.3689 44.14 60.3422 44.14ZM60.3422 43.062C60.9302 43.062 61.3922 42.8753 61.7282 42.502C62.0736 42.1287 62.2602 41.592 62.2882 40.892C62.2976 40.7987 62.3022 40.6213 62.3022 40.36C62.3022 40.0987 62.2976 39.9213 62.2882 39.828C62.2602 39.128 62.0736 38.5913 61.7282 38.218C61.3922 37.8447 60.9302 37.658 60.3422 37.658C59.7542 37.658 59.2876 37.8447 58.9422 38.218C58.5969 38.5913 58.4149 39.128 58.3962 39.828L58.3822 40.36L58.3962 40.892C58.4149 41.592 58.5969 42.1287 58.9422 42.502C59.2876 42.8753 59.7542 43.062 60.3422 43.062ZM68.1153 44.14C67.2286 44.14 66.5426 43.8553 66.0573 43.286C65.5719 42.7073 65.3293 41.942 65.3293 40.99V37.042C65.3293 36.9487 65.3573 36.874 65.4133 36.818C65.4786 36.7527 65.5579 36.72 65.6513 36.72H66.3513C66.4446 36.72 66.5193 36.7527 66.5753 36.818C66.6406 36.874 66.6733 36.9487 66.6733 37.042V40.92C66.6733 42.3107 67.2799 43.006 68.4933 43.006C69.0813 43.006 69.5479 42.824 69.8933 42.46C70.2386 42.0867 70.4113 41.5733 70.4113 40.92V37.042C70.4113 36.9487 70.4393 36.874 70.4953 36.818C70.5606 36.7527 70.6399 36.72 70.7333 36.72H71.4333C71.5266 36.72 71.6013 36.7527 71.6573 36.818C71.7133 36.874 71.7413 36.9487 71.7413 37.042V43.678C71.7413 43.7713 71.7133 43.8507 71.6573 43.916C71.6013 43.972 71.5266 44 71.4333 44H70.7753C70.6819 44 70.6026 43.972 70.5373 43.916C70.4813 43.8507 70.4533 43.7713 70.4533 43.678V43.062C70.1919 43.4167 69.8746 43.6873 69.5013 43.874C69.1279 44.0513 68.6659 44.14 68.1153 44.14ZM74.1432 44C74.0498 44 73.9705 43.972 73.9052 43.916C73.8492 43.8507 73.8212 43.7713 73.8212 43.678V37.042C73.8212 36.9487 73.8492 36.874 73.9052 36.818C73.9705 36.7527 74.0498 36.72 74.1432 36.72H74.8012C74.8945 36.72 74.9692 36.7527 75.0252 36.818C75.0905 36.874 75.1232 36.9487 75.1232 37.042V37.658C75.3938 37.3127 75.7112 37.0467 76.0752 36.86C76.4485 36.6733 76.9105 36.58 77.4612 36.58C78.3572 36.58 79.0525 36.8693 79.5472 37.448C80.0512 38.0173 80.3032 38.778 80.3032 39.73V43.678C80.3032 43.7713 80.2705 43.8507 80.2052 43.916C80.1492 43.972 80.0745 44 79.9812 44H79.2812C79.1878 44 79.1085 43.972 79.0432 43.916C78.9872 43.8507 78.9592 43.7713 78.9592 43.678V39.8C78.9592 39.1373 78.7958 38.624 78.4692 38.26C78.1518 37.896 77.6898 37.714 77.0832 37.714C76.4952 37.714 76.0285 37.9007 75.6832 38.274C75.3378 38.638 75.1652 39.1467 75.1652 39.8V43.678C75.1652 43.7713 75.1325 43.8507 75.0672 43.916C75.0112 43.972 74.9365 44 74.8432 44H74.1432ZM85.0577 44C83.583 44 82.8457 43.1787 82.8457 41.536V37.84H81.7537C81.6604 37.84 81.581 37.812 81.5157 37.756C81.4597 37.6907 81.4317 37.6113 81.4317 37.518V37.042C81.4317 36.9487 81.4597 36.874 81.5157 36.818C81.581 36.7527 81.6604 36.72 81.7537 36.72H82.8457V34.382C82.8457 34.2887 82.8737 34.214 82.9297 34.158C82.995 34.0927 83.0744 34.06 83.1677 34.06H83.8257C83.919 34.06 83.9937 34.0927 84.0497 34.158C84.115 34.214 84.1477 34.2887 84.1477 34.382V36.72H85.8837C85.977 36.72 86.0517 36.7527 86.1077 36.818C86.173 36.874 86.2057 36.9487 86.2057 37.042V37.518C86.2057 37.6113 86.173 37.6907 86.1077 37.756C86.0517 37.812 85.977 37.84 85.8837 37.84H84.1477V41.438C84.1477 41.9047 84.227 42.2593 84.3857 42.502C84.5444 42.7353 84.8057 42.852 85.1697 42.852H86.0237C86.117 42.852 86.1917 42.8847 86.2477 42.95C86.313 43.006 86.3457 43.0807 86.3457 43.174V43.678C86.3457 43.7713 86.313 43.8507 86.2477 43.916C86.1917 43.972 86.117 44 86.0237 44H85.0577ZM88.0064 44C87.9131 44 87.8338 43.972 87.7684 43.916C87.7124 43.8507 87.6844 43.7713 87.6844 43.678V37.056C87.6844 36.9627 87.7124 36.8833 87.7684 36.818C87.8338 36.7527 87.9131 36.72 88.0064 36.72H88.6504C88.7438 36.72 88.8231 36.7527 88.8884 36.818C88.9538 36.8833 88.9864 36.9627 88.9864 37.056V37.672C89.3691 37.0373 90.0224 36.72 90.9464 36.72H91.4924C91.5858 36.72 91.6604 36.7527 91.7164 36.818C91.7818 36.874 91.8144 36.9487 91.8144 37.042V37.616C91.8144 37.7093 91.7818 37.784 91.7164 37.84C91.6604 37.896 91.5858 37.924 91.4924 37.924H90.6524C90.1484 37.924 89.7518 38.0733 89.4624 38.372C89.1731 38.6613 89.0284 39.058 89.0284 39.562V43.678C89.0284 43.7713 88.9958 43.8507 88.9304 43.916C88.8651 43.972 88.7858 44 88.6924 44H88.0064ZM93.2128 35.362C93.1195 35.362 93.0401 35.334 92.9748 35.278C92.9188 35.2127 92.8908 35.1333 92.8908 35.04V34.284C92.8908 34.1907 92.9188 34.1113 92.9748 34.046C93.0401 33.9807 93.1195 33.948 93.2128 33.948H94.0948C94.1881 33.948 94.2675 33.9807 94.3328 34.046C94.3981 34.1113 94.4308 34.1907 94.4308 34.284V35.04C94.4308 35.1333 94.3981 35.2127 94.3328 35.278C94.2675 35.334 94.1881 35.362 94.0948 35.362H93.2128ZM93.3248 44C93.2315 44 93.1521 43.972 93.0868 43.916C93.0308 43.8507 93.0028 43.7713 93.0028 43.678V37.042C93.0028 36.9487 93.0308 36.874 93.0868 36.818C93.1521 36.7527 93.2315 36.72 93.3248 36.72H93.9968C94.0901 36.72 94.1648 36.7527 94.2208 36.818C94.2861 36.874 94.3188 36.9487 94.3188 37.042V43.678C94.3188 43.7713 94.2861 43.8507 94.2208 43.916C94.1648 43.972 94.0901 44 93.9968 44H93.3248ZM99.3054 44.14C98.3441 44.14 97.5741 43.846 96.9954 43.258C96.4261 42.6607 96.1134 41.8487 96.0574 40.822L96.0434 40.346L96.0574 39.884C96.1228 38.876 96.4401 38.0733 97.0094 37.476C97.5881 36.8787 98.3488 36.58 99.2914 36.58C100.327 36.58 101.13 36.9113 101.699 37.574C102.269 38.2273 102.553 39.114 102.553 40.234V40.472C102.553 40.5653 102.521 40.6447 102.455 40.71C102.399 40.766 102.325 40.794 102.231 40.794H97.3874V40.92C97.4154 41.5267 97.5974 42.0447 97.9334 42.474C98.2788 42.894 98.7314 43.104 99.2914 43.104C99.7208 43.104 100.071 43.02 100.341 42.852C100.621 42.6747 100.827 42.4927 100.957 42.306C101.041 42.194 101.102 42.1287 101.139 42.11C101.186 42.082 101.265 42.068 101.377 42.068H102.063C102.147 42.068 102.217 42.0913 102.273 42.138C102.329 42.1847 102.357 42.25 102.357 42.334C102.357 42.5393 102.227 42.7867 101.965 43.076C101.713 43.3653 101.354 43.6173 100.887 43.832C100.43 44.0373 99.9028 44.14 99.3054 44.14ZM101.223 39.828V39.786C101.223 39.142 101.046 38.6193 100.691 38.218C100.346 37.8073 99.8794 37.602 99.2914 37.602C98.7034 37.602 98.2368 37.8073 97.8914 38.218C97.5554 38.6193 97.3874 39.142 97.3874 39.786V39.828H101.223ZM106.747 44.14C106.094 44.14 105.543 44.0373 105.095 43.832C104.657 43.6173 104.325 43.3747 104.101 43.104C103.887 42.8333 103.779 42.6093 103.779 42.432C103.779 42.3387 103.812 42.2687 103.877 42.222C103.952 42.166 104.027 42.138 104.101 42.138H104.731C104.825 42.138 104.909 42.1847 104.983 42.278C105.207 42.5393 105.45 42.7447 105.711 42.894C105.973 43.0433 106.323 43.118 106.761 43.118C107.247 43.118 107.639 43.0247 107.937 42.838C108.245 42.642 108.399 42.376 108.399 42.04C108.399 41.816 108.334 41.634 108.203 41.494C108.082 41.3447 107.867 41.2187 107.559 41.116C107.261 41.004 106.813 40.8827 106.215 40.752C105.403 40.5747 104.825 40.318 104.479 39.982C104.143 39.646 103.975 39.212 103.975 38.68C103.975 38.3253 104.078 37.9893 104.283 37.672C104.498 37.3453 104.806 37.084 105.207 36.888C105.618 36.6827 106.108 36.58 106.677 36.58C107.275 36.58 107.783 36.678 108.203 36.874C108.623 37.07 108.936 37.3033 109.141 37.574C109.356 37.8353 109.463 38.0547 109.463 38.232C109.463 38.316 109.431 38.386 109.365 38.442C109.309 38.498 109.239 38.526 109.155 38.526H108.567C108.455 38.526 108.362 38.4793 108.287 38.386C108.138 38.2087 108.007 38.0733 107.895 37.98C107.793 37.8773 107.639 37.7887 107.433 37.714C107.237 37.6393 106.985 37.602 106.677 37.602C106.229 37.602 105.884 37.7 105.641 37.896C105.399 38.0827 105.277 38.33 105.277 38.638C105.277 38.834 105.329 39.002 105.431 39.142C105.534 39.2727 105.73 39.394 106.019 39.506C106.318 39.618 106.747 39.7347 107.307 39.856C108.194 40.0427 108.819 40.3133 109.183 40.668C109.557 41.0133 109.743 41.4567 109.743 41.998C109.743 42.3993 109.627 42.7633 109.393 43.09C109.16 43.4167 108.815 43.6733 108.357 43.86C107.909 44.0467 107.373 44.14 106.747 44.14Z" fill="#4F5665"/>
<path d="M53.025 21.17C51.9257 21.17 51.002 21 50.254 20.66C49.5173 20.32 48.9677 19.9007 48.605 19.402C48.2537 18.892 48.0667 18.382 48.044 17.872C48.044 17.77 48.078 17.685 48.146 17.617C48.2253 17.549 48.316 17.515 48.418 17.515H50.645C50.7697 17.515 50.8717 17.5377 50.951 17.583C51.0303 17.6283 51.104 17.7133 51.172 17.838C51.3987 18.4273 52.0163 18.722 53.025 18.722C53.603 18.722 54.0507 18.5917 54.368 18.331C54.6967 18.059 54.861 17.6907 54.861 17.226C54.861 16.3193 54.2717 15.866 53.093 15.866H51.206C51.0927 15.866 50.9907 15.8263 50.9 15.747C50.8207 15.6563 50.781 15.5543 50.781 15.441V14.489C50.781 14.2397 50.8717 14.047 51.053 13.911L53.841 11.548H49.115C49.0017 11.548 48.8997 11.5083 48.809 11.429C48.7297 11.3383 48.69 11.2363 48.69 11.123V9.525C48.69 9.40033 48.7297 9.29833 48.809 9.219C48.8997 9.13967 49.0017 9.1 49.115 9.1H56.935C57.0597 9.1 57.1617 9.13967 57.241 9.219C57.3317 9.29833 57.377 9.40033 57.377 9.525V10.97C57.377 11.1853 57.2863 11.3723 57.105 11.531L54.521 13.928L54.64 13.962C55.6827 14.098 56.5043 14.4493 57.105 15.016C57.717 15.5713 58.023 16.3703 58.023 17.413C58.023 18.1723 57.8077 18.8353 57.377 19.402C56.9463 19.9687 56.3513 20.405 55.592 20.711C54.8327 21.017 53.977 21.17 53.025 21.17ZM64.4691 21.17C62.9051 21.1587 61.7207 20.745 60.9161 19.929C60.1114 19.1017 59.6751 18.0193 59.6071 16.682C59.5844 16.07 59.5731 15.526 59.5731 15.05C59.5731 14.5627 59.5844 14.0017 59.6071 13.367C59.6524 12.517 59.8564 11.7633 60.2191 11.106C60.5931 10.4373 61.1371 9.91033 61.8511 9.525C62.5651 9.12833 63.4377 8.93 64.4691 8.93C65.9991 8.94133 67.1777 9.355 68.0051 10.171C68.8324 10.987 69.2801 12.0523 69.3481 13.367C69.3707 14.0017 69.3821 14.5627 69.3821 15.05C69.3821 15.526 69.3707 16.07 69.3481 16.682C69.2687 18.0193 68.8267 19.1017 68.0221 19.929C67.2174 20.745 66.0331 21.1587 64.4691 21.17ZM64.4691 18.705C65.0244 18.705 65.4381 18.5237 65.7101 18.161C65.9934 17.787 66.1464 17.2657 66.1691 16.597C66.1917 16.2683 66.2031 15.7413 66.2031 15.016C66.2031 14.2907 66.1917 13.775 66.1691 13.469C66.1464 12.823 65.9991 12.313 65.7271 11.939C65.4551 11.565 65.0357 11.3723 64.4691 11.361C63.9137 11.3723 63.4944 11.565 63.2111 11.939C62.9391 12.313 62.7917 12.823 62.7691 13.469C62.7577 13.775 62.7521 14.2907 62.7521 15.016C62.7521 15.7413 62.7577 16.2683 62.7691 16.597C62.8257 18.0023 63.3924 18.705 64.4691 18.705ZM74.7317 20.439C74.6184 20.439 74.5164 20.3993 74.4257 20.32C74.3464 20.2293 74.3067 20.1273 74.3067 20.014V16.903H71.2807C71.1561 16.903 71.0484 16.8633 70.9577 16.784C70.8784 16.7047 70.8387 16.6027 70.8387 16.478V15.237C70.8387 15.1123 70.8784 15.0103 70.9577 14.931C71.0484 14.8403 71.1561 14.795 71.2807 14.795H74.3067V11.786C74.3067 11.6613 74.3464 11.5593 74.4257 11.48C74.5164 11.4007 74.6184 11.361 74.7317 11.361H76.1257C76.2504 11.361 76.3524 11.4007 76.4317 11.48C76.5111 11.5593 76.5507 11.6613 76.5507 11.786V14.795H79.5597C79.6844 14.795 79.7864 14.8403 79.8657 14.931C79.9451 15.0103 79.9847 15.1123 79.9847 15.237V16.478C79.9847 16.6027 79.9451 16.7047 79.8657 16.784C79.7864 16.8633 79.6844 16.903 79.5597 16.903H76.5507V20.014C76.5507 20.1273 76.5111 20.2293 76.4317 20.32C76.3524 20.3993 76.2504 20.439 76.1257 20.439H74.7317Z" fill="#0B132A"/>
<rect y="9" width="35" height="35" rx="17.5" fill="#FFECEC"/>
<path d="M21.9545 24.5908C21.9545 24.0058 21.8393 23.4265 21.6155 22.8861C21.3916 22.3456 21.0635 21.8546 20.6498 21.4409C20.2362 21.0273 19.7451 20.6992 19.2047 20.4753C18.6642 20.2515 18.085 20.1362 17.5 20.1362C16.915 20.1362 16.3358 20.2515 15.7953 20.4753C15.2549 20.6992 14.7638 21.0273 14.3502 21.4409C13.9365 21.8546 13.6084 22.3456 13.3845 22.8861C13.1607 23.4265 13.0454 24.0058 13.0454 24.5908C13.0454 25.4734 13.3064 26.2943 13.7486 26.9867H13.7435C15.2454 29.338 17.5 32.8635 17.5 32.8635L21.2564 26.9867H21.252C21.7104 26.2716 21.9543 25.4402 21.9545 24.5908ZM17.5 26.4999C16.9937 26.4999 16.5081 26.2987 16.1501 25.9407C15.792 25.5827 15.5909 25.0971 15.5909 24.5908C15.5909 24.0845 15.792 23.5989 16.1501 23.2408C16.5081 22.8828 16.9937 22.6817 17.5 22.6817C18.0063 22.6817 18.4919 22.8828 18.8499 23.2408C19.2079 23.5989 19.4091 24.0845 19.4091 24.5908C19.4091 25.0971 19.2079 25.5827 18.8499 25.9407C18.4919 26.2987 18.0063 26.4999 17.5 26.4999Z" fill="#DC7000"/>
</svg>
